<?xml version="1.0" encoding="utf-8"?>
<!-- Uploaded to: SVG Repo, www.svgrepo.com, Generator: SVG Repo Mixer Tools -->
<svg width="800px" height="800px" viewBox="0 0 1024 1024" class="icon"  version="1.1" xmlns="http://www.w3.org/2000/svg"><path d="M630.54 855.38c0.633 0 1.305-0.038 1.938-0.111 74.701-7.45 135.018-39.681 174.363-93.181 47.095-64.045 61.287-156.257 39.941-259.647-24.107-117.324-110.581-246.753-194.187-371.939-13.15-19.746-26.19-39.269-38.785-58.455-7.077-10.767-24.885-10.694-31.89 0-12.853 19.633-26.191 39.566-39.643 59.721-26.862 40.24-54.357 81.408-79.916 122.578L630.54 855.38z" fill="#FF3B30" /><path d="M546.04 217.118a11093.63 11093.63 0 0 1-30.204-45.51c-18.177 27.428-36.27 55.026-53.475 82.74L630.54 855.38c0.633 0 1.305-0.039 1.938-0.111 27.063-2.7 52.168-8.751 75.141-17.789 41.019-63.446 52.839-150.376 32.646-248.386-24.181-117.251-110.621-246.756-194.225-371.976z" fill="#030504" /><path d="M426.182 959.999c-86.359 0-156.256-29.804-202.194-86.176-52.531-64.491-69.15-159.797-46.72-268.4 24.107-117.25 110.505-246.645 194.072-371.792 13.228-19.782 26.268-39.381 38.9-58.606 7.004-10.728 24.886-10.728 31.89 0 12.556 19.186 25.596 38.674 38.747 58.383 83.604 125.22 170.044 254.727 194.224 371.977 22.391 108.677 5.772 204.018-46.797 268.476-45.9 56.368-115.797 86.138-202.122 86.138z" fill="#2577FF" /><path d="M675.103 605.386C650.921 488.134 564.481 358.629 480.877 233.41c-13.152-19.711-26.19-39.197-38.747-58.384-7.004-10.73-24.885-10.73-31.889 0-7.18 10.924-14.705 22.17-22.106 33.302 82.023 122.885 165.521 249.561 189.222 364.476 22.391 108.677 5.772 204.017-46.797 268.474-45.9 56.369-115.797 86.139-202.124 86.139-15.911 0-31.057-1.353-45.805-3.357 39.827 23.583 88.262 35.94 143.55 35.94 86.326 0 156.223-29.769 202.125-86.138 52.567-64.459 69.186-159.799 46.797-268.476z" fill="#030504" /><path d="M318.66 838.214c-12.592 0-24.332-5.603-32.222-15.371-36.873-45.256-47.628-116.72-30.216-201.155 2.501-12.111 14.314-19.942 26.46-17.412 12.12 2.497 19.914 14.346 17.421 26.462-14.482 70.215-7.299 127.917 20.205 162.734 11.6 0.846 20.751 10.526 20.751 22.341 0.002 12.372-10.025 22.401-22.399 22.401z" fill="#FFFFFF" /></svg>